<svg version="1.1" xmlns="http://www.w3.org/2000/svg" width="142" height="64" viewBox="0 0 142 64">
	<rect width="100%" height="100%" x="0" y="0" fill="#EDF1FA" stroke="none" stroke-width="0"/>
	<text x="12px" y="40%" width="60%" height="40%" fill="#666" style="user-select: none;">tCoffe</text>
	<text x="12px" y="120%" fill="#666" style="user-select: none;transform: scale(0.6);">上海深普软件</text>
	<svg x="60%" y="15%" width="40%" height="70%" viewBox="0 0 32 32" fill="none" xmlns="http://www.w3.org/2000/svg" aria-labelledby="coffeeIconTitle"
	stroke="#ec7708" stroke-width="1.5" stroke-linecap="square" stroke-linejoin="miter" color="#666">
	<path d="M5 12H17V17C17 19.7614 14.7614 22 12 22H10C7.23858 22 5 19.7614 5 17V12Z"/>
	<path d="M17 13H19C20.1046 13 21 13.8954 21 15V15C21 16.1046 20.1046 17 19 17H17"/>
	<path d="M9 9C9 9 8 8.5 8 7C8 5.5 9 5 9 5"/>
	<path d="M12 3C12 3 13 3.5 13 5C13 6.5 12 7 12 7"/>
	</svg>
</svg>